<?xml version="1.0" encoding="UTF-8" standalone="no"?>
<svg
   xmlns:dc="http://purl.org/dc/elements/1.1/"
   xmlns:cc="http://creativecommons.org/ns#"
   xmlns:rdf="http://www.w3.org/1999/02/22-rdf-syntax-ns#"
   xmlns:svg="http://www.w3.org/2000/svg"
   xmlns="http://www.w3.org/2000/svg"
   height="214.03145"
   width="1770.3818"
   id="svg16"
   viewBox="0 0 1770.3819 214.03145"
   version="1.1">
  <metadata
     id="metadata20">
    <rdf:RDF>
      <cc:Work
         rdf:about="">
        <dc:format>image/svg+xml</dc:format>
        <dc:type
           rdf:resource="http://purl.org/dc/dcmitype/StillImage" />
        <dc:title>Solarfields logo</dc:title>
      </cc:Work>
    </rdf:RDF>
  </metadata>
  <defs
     id="defs4">
    <style
       id="style2">.cls-1{fill:#314d5a;}</style>
  </defs>
  <title
     id="title6">Solarfields logo</title>
  <g
     transform="translate(0.26189308,0.00349659)"
     id="g14"
     data-name="Layer 2">
    <path
       class="cls-1"
       d="m 1730,94.33 -23.93,-2.53 a 25.38,25.38 0 0 1 -13,-5.39 q -5.25,-4.32 -5.25,-11.82 0,-7.5 7.25,-13 7.23,-5.49 20,-5.49 21,0 24.56,18.36 l 26,-1.26 q 0,-18.8 -14.28,-30.72 -14.28,-11.92 -37.68,-11.93 -23.42,0 -38.73,12.67 -15.31,12.67 -15.33,32.09 0,19.42 10.71,29.77 10.71,10.35 29,13.09 l 24.35,2.53 q 17.85,2.75 17.85,17.95 0,18.57 -26.25,18.57 a 38.25,38.25 0 0 1 -21.41,-6.33 q -9.66,-6.33 -9.65,-17.73 l -26.45,1.26 a 45.71,45.71 0 0 0 5.66,22.91 42.36,42.36 0 0 0 14.49,15.52 q 17.83,10.56 37,10.56 24.13,0 39.67,-12.14 15.54,-12.14 15.54,-33.47 0,-38 -40.1,-43.49 m -121.76,52.36 q -7.56,9.28 -22.14,9.29 -14.58,0.01 -20.26,-3.17 -5.67,-3.17 -5.67,-11.61 V 58 h 26.24 q 14.28,0 21.83,9.29 4,4.86 5.15,13 1.15,8.14 1.15,26.28 0,18.17 -1.15,26.71 -1.15,8.54 -5.15,13.41 m 34,-72.21 A 47.48,47.48 0 0 0 1628.62,46.19 Q 1614.34,31.85 1589.15,31.84 H 1531 v 110.84 q 0,22.38 12,30.93 12,8.55 44.09,8.55 27.29,0 41.57,-14.36 a 43.78,43.78 0 0 0 11.54,-19.21 123.39,123.39 0 0 0 3.78,-26 l -0.21,-16.25 A 271.53,271.53 0 0 0 1642.3,74.45 M 1507.68,156 h -44.51 q -10.49,0 -14.48,-3.38 -3.99,-3.38 -4,-12.24 V 31.84 h -29.18 v 108.52 q 0,22.15 11.23,32 11.23,9.85 36.42,9.82 h 44.51 z M 1387,156 h -50.8 q -10.5,0 -14.48,-3.38 -3.98,-3.38 -4,-12.24 v -20.93 h 46.39 l 2.1,-26.18 H 1317.7 V 58 H 1387 V 31.84 h -98.45 v 110.63 q 0,22.16 10.18,30.93 10.18,8.77 35.37,8.76 H 1387 Z M 1253.67,31.84 h -29.18 v 150.32 h 29.18 z m -54.58,0 h -66.34 q -17.62,0 -24.87,7 -7.25,7 -7.25,23.65 v 119.67 h 29.18 v -61 h 52.69 L 1184.6,95 h -54.79 V 74.06 q 0,-8.86 3.68,-12.45 3.68,-3.59 12.91,-3.61 h 52.69 z M 1020,101.93 H 992.5 V 71.32 q 0,-13.3 13,-13.3 h 14.5 q 9.66,0 15.43,5.91 5.77,5.91 5.78,15.52 a 22.66,22.66 0 0 1 -6,16 19.84,19.84 0 0 1 -15.22,6.44 m 23.1,19.64 a 40.83,40.83 0 0 0 19.41,-15.31 q 7.88,-11.08 7.88,-26.29 0,-20.89 -13.12,-34.52 -13.12,-13.63 -35.38,-13.61 h -24.74 q -18.25,0 -26,7.7 -7.75,7.7 -7.77,24.6 v 118 h 29.18 v -55.68 h 21 l 29.18,55.74 h 33.79 z m -179.46,9.92 18.5,-59.45 17.64,59.54 z m 33.8,-87 q -2.73,-7.6 -6.19,-10.14 a 15.13,15.13 0 0 0 -9.14,-2.53 16.12,16.12 0 0 0 -9.55,2.74 q -3.89,2.74 -7,9.93 l -47.86,137.71 h 30.43 l 8.19,-26 h 50.18 l 8.39,26 h 30.44 z M 806.11,156 h -44.5 q -10.5,0 -14.48,-3.38 -3.98,-3.38 -4,-12.24 V 31.84 H 714 v 108.52 q 0,22.15 11.23,32 11.23,9.85 36.42,9.82 h 44.5 z M 656.23,137.19 a 28.45,28.45 0 0 1 -4.83,10.55 24.51,24.51 0 0 1 -8.82,6.76 31.33,31.33 0 0 1 -13.75,2.74 30.9,30.9 0 0 1 -13.83,-2.85 23.13,23.13 0 0 1 -8.71,-6.86 q -7.56,-9.5 -7.55,-36.73 V 103 q 0,-20.91 4.82,-32.31 5.88,-13.94 25.41,-13.93 19.3,0 25.19,13.93 5,12 5,32.31 v 7.81 q 0,16 -2.94,26.39 m 17.63,-89.31 q -14.49,-17.31 -45.24,-17.31 -30.75,0 -44.93,17.1 -14.16,17.1 -14.16,52.15 v 11 q 0,38.43 14,55.52 14,17.09 45.23,17.11 31.29,0 45.45,-17.11 14.16,-17.11 14.18,-54.89 V 100 q 0,-34.83 -14.49,-52.15 M 515.37,94.33 491.44,91.8 a 25.38,25.38 0 0 1 -13,-5.39 q -5.25,-4.32 -5.25,-11.82 0,-7.5 7.24,-13 7.24,-5.49 20,-5.49 21,0 24.56,18.36 l 26,-1.26 q 0,-18.8 -14.27,-30.72 -14.27,-11.92 -37.62,-11.91 -23.42,0 -38.73,12.67 -15.31,12.67 -15.37,32.09 0,19.42 10.71,29.77 10.71,10.35 29,13.09 l 24.35,2.53 q 17.84,2.75 17.84,17.95 0,18.57 -26.24,18.57 a 38.2,38.2 0 0 1 -21.41,-6.33 q -9.66,-6.33 -9.66,-17.73 l -26.45,1.26 a 45.71,45.71 0 0 0 5.67,22.91 42.36,42.36 0 0 0 14.49,15.52 q 17.83,10.56 36.94,10.56 24.13,0 39.68,-12.14 15.55,-12.14 15.53,-33.47 0,-38 -40.09,-43.49"
       id="path8"
       style="fill:#ffffff;fill-opacity:1" />
    <path
       class="cls-1"
       d="m 352.87,136.8 -70.23,71.54 A 106.77,106.77 0 0 0 352.87,136.8 M 328.29,33.71 A 106.56,106.56 0 0 0 304.81,14.9 L 160.71,161.7 A 105.68,105.68 0 0 1 148.46,131.35 L 274.65,2.81 a 101.39,101.39 0 0 0 -41,-1.33 l -86.36,88 a 106.49,106.49 0 0 1 32.13,-59.79 106.64,106.64 0 1 0 -0.4,155.77 c 0,0 149.27,-151.75 149.27,-151.75 M 356,90.82 A 105.87,105.87 0 0 0 345.8,58.69 L 204.51,202.62 a 105.63,105.63 0 0 0 32.28,9.61 z"
       id="path10"
       style="fill:#fefeff;fill-opacity:1" />
  </g>
</svg>
