<?xml version="1.0" encoding="UTF-8" standalone="no"?>
<svg
   xmlns:dc="http://purl.org/dc/elements/1.1/"
   xmlns:cc="http://creativecommons.org/ns#"
   xmlns:rdf="http://www.w3.org/1999/02/22-rdf-syntax-ns#"
   xmlns:svg="http://www.w3.org/2000/svg"
   xmlns="http://www.w3.org/2000/svg"
   id="svg843"
   viewBox="0 0 1770.4 214.03"
   version="1.1"
   height="214.03"
   width="1770.4">
  <metadata
     id="metadata847">
    <rdf:RDF>
      <cc:Work
         rdf:about="">
        <dc:format>image/svg+xml</dc:format>
        <dc:type
           rdf:resource="http://purl.org/dc/dcmitype/StillImage" />
        <dc:title>Solarfields logo</dc:title>
      </cc:Work>
    </rdf:RDF>
  </metadata>
  <defs
     id="defs831">
    <style
       id="style829">.cls-1{fill:#314d5a;}</style>
  </defs>
  <title
     id="title833">Solarfields logo</title>
  <g
     id="g841"
     data-name="Layer 2"
     transform="translate(.26189 .0034966)">
    <g
       id="g839"
       data-name="Laag 1"
       fill="#314d5a">
      <path
         id="path835"
         d="m1730 94.33-23.93-2.53a25.38 25.38 0 0 1-13-5.39q-5.25-4.32-5.25-11.82t7.25-13q7.23-5.49 20-5.49 21 0 24.56 18.36l26-1.26q0-18.8-14.28-30.72t-37.68-11.93q-23.42 0-38.73 12.67t-15.33 32.09q0 19.42 10.71 29.77t29 13.09l24.35 2.53q17.85 2.75 17.85 17.95 0 18.57-26.25 18.57a38.25 38.25 0 0 1-21.41-6.33q-9.66-6.33-9.65-17.73l-26.45 1.26a45.71 45.71 0 0 0 5.66 22.91 42.36 42.36 0 0 0 14.49 15.52q17.83 10.56 37 10.56 24.13 0 39.67-12.14t15.54-33.47q0-38-40.1-43.49m-121.76 52.36q-7.56 9.28-22.14 9.29t-20.26-3.17q-5.67-3.17-5.67-11.61v-83.18h26.24q14.28 0 21.83 9.29 4 4.86 5.15 13t1.15 26.28q0 18.17-1.15 26.71t-5.15 13.41m34-72.21a47.48 47.48 0 0 0-13.64-28.29q-14.28-14.34-39.47-14.35h-58.15v110.84q0 22.38 12 30.93t44.09 8.55q27.29 0 41.57-14.36a43.78 43.78 0 0 0 11.54-19.21 123.39 123.39 0 0 0 3.78-26l-0.21-16.25a271.53 271.53 0 0 0-1.47-31.89m-134.62 81.55h-44.51q-10.49 0-14.48-3.38t-4-12.24v-108.54h-29.18v108.52q0 22.15 11.23 32t36.42 9.82h44.51zm-120.68 0h-50.8q-10.5 0-14.48-3.38t-4-12.24v-20.93h46.39l2.1-26.18h-48.51v-35.27h69.3v-26.16h-98.45v110.63q0 22.16 10.18 30.93t35.37 8.76h52.9zm-133.33-124.16h-29.18v150.32h29.18zm-54.58 0h-66.34q-17.62 0-24.87 7t-7.25 23.65v119.67h29.18v-61h52.69l2.1-26.16h-54.79v-20.94q0-8.86 3.68-12.45t12.91-3.61h52.69zm-179.09 70.09h-27.5v-30.61q0-13.3 13-13.3h14.5q9.66 0 15.43 5.91t5.78 15.52a22.66 22.66 0 0 1-6 16 19.84 19.84 0 0 1-15.22 6.44m23.1 19.64a40.83 40.83 0 0 0 19.41-15.31q7.88-11.08 7.88-26.29 0-20.89-13.12-34.52t-35.38-13.61h-24.74q-18.25 0-26 7.7t-7.77 24.6v118h29.18v-55.68h21l29.18 55.74h33.79zm-179.46 9.92 18.5-59.45 17.64 59.54zm33.8-87q-2.73-7.6-6.19-10.14a15.13 15.13 0 0 0-9.14-2.53 16.12 16.12 0 0 0-9.55 2.74q-3.89 2.74-7 9.93l-47.86 137.71h30.43l8.19-26h50.18l8.39 26h30.44zm-91.32 111.55h-44.5q-10.5 0-14.48-3.38t-4-12.24v-108.54h-29.13v108.52q0 22.15 11.23 32t36.42 9.82h44.5zm-149.88-18.81a28.45 28.45 0 0 1-4.83 10.55 24.51 24.51 0 0 1-8.82 6.76 31.33 31.33 0 0 1-13.75 2.74 30.9 30.9 0 0 1-13.83-2.85 23.13 23.13 0 0 1-8.71-6.86q-7.56-9.5-7.55-36.73v-7.8q0-20.91 4.82-32.31 5.88-13.94 25.41-13.93 19.3 0 25.19 13.93 5 12 5 32.31v7.81q0 16-2.94 26.39m17.63-89.31q-14.49-17.31-45.24-17.31t-44.93 17.1q-14.16 17.1-14.16 52.15v11q0 38.43 14 55.52t45.23 17.11q31.29 0 45.45-17.11t14.18-54.89v-11.46q0-34.83-14.49-52.15m-158.52 46.48-23.93-2.53a25.38 25.38 0 0 1-13-5.39q-5.25-4.32-5.25-11.82t7.24-13q7.24-5.49 20-5.49 21 0 24.56 18.36l26-1.26q0-18.8-14.27-30.72t-37.62-11.91q-23.42 0-38.73 12.67t-15.37 32.09q0 19.42 10.71 29.77t29 13.09l24.35 2.53q17.84 2.75 17.84 17.95 0 18.57-26.24 18.57a38.2 38.2 0 0 1-21.41-6.33q-9.66-6.33-9.66-17.73l-26.45 1.26a45.71 45.71 0 0 0 5.67 22.91 42.36 42.36 0 0 0 14.49 15.52q17.83 10.56 36.94 10.56 24.13 0 39.68-12.14t15.53-33.47q0-38-40.09-43.49"
         class="cls-1" />
      <path
         id="path837"
         d="m352.87 136.8-70.23 71.54a106.77 106.77 0 0 0 70.23-71.54m-24.58-103.09a106.56 106.56 0 0 0-23.48-18.81l-144.1 146.8a105.68 105.68 0 0 1-12.25-30.35l126.19-128.54a101.39 101.39 0 0 0-41-1.33l-86.36 88a106.49 106.49 0 0 1 32.13-59.79 106.64 106.64 0 1 0-0.4 155.77l149.27-151.75m27.71 57.11a105.87 105.87 0 0 0-10.2-32.13l-141.29 143.93a105.63 105.63 0 0 0 32.28 9.61z"
         class="cls-1" />
    </g>
  </g>
</svg>
